<?xml version="1.0" encoding="utf-8"?>
<!-- Generator: Adobe Illustrator 27.7.0, SVG Export Plug-In . SVG Version: 6.00 Build 0)  -->
<svg version="1.1" id="a997016c-db65-4858-a20c-b74374785ce3"
	 xmlns="http://www.w3.org/2000/svg" xmlns:xlink="http://www.w3.org/1999/xlink" x="0px" y="0px" viewBox="0 0 822.9 850"
	 style="enable-background:new 0 0 822.9 850;" xml:space="preserve">
<path d="M822.9,716.8V850c-105.7,0-191.3-85.7-191.3-191.3v-109c0-32.1-26-58.1-58.1-58.1H249.4c-32,0.1-58,26.1-58,58.1v108.9
	c0,32.1,26,58.1,58.1,58.1h322.3V850H249.5c-105.7,0-191.3-85.7-191.3-191.3v-109c-0.1-45.8,16.3-90,46.2-124.7
	c-30-34.6-46.4-79-46.3-124.8v-109c0-32.1-26-58.1-58.1-58.1V0c50.8-0.1,99.5,20,135.3,56c36,35.8,56.2,84.5,56,135.3v109
	c0,32.1,26,58.1,58.1,58.1h324.1c32-0.1,58-26.1,58-58.1v-109c0-32.1-26-58.1-58.1-58.1H251.1V0h322.3
	c105.7,0,191.3,85.7,191.3,191.3l0,0v109c0.1,45.8-16.3,90-46.2,124.7c30,34.6,46.4,79,46.3,124.8v108.9
	C764.9,690.7,790.9,716.7,822.9,716.8z"/>
</svg>
